<?xml version="1.0" encoding="utf-8" standalone="no"?>
<!DOCTYPE svg PUBLIC "-//W3C//DTD SVG 1.1//EN"
  "http://www.w3.org/Graphics/SVG/1.1/DTD/svg11.dtd">
<svg xmlns:xlink="http://www.w3.org/1999/xlink" width="576pt" height="180pt" viewBox="0 0 576 180" xmlns="http://www.w3.org/2000/svg" version="1.1">
 <metadata>
  <rdf:RDF xmlns:dc="http://purl.org/dc/elements/1.1/" xmlns:cc="http://creativecommons.org/ns#" xmlns:rdf="http://www.w3.org/1999/02/22-rdf-syntax-ns#">
   <cc:Work>
    <dc:type rdf:resource="http://purl.org/dc/dcmitype/StillImage"/>
    <dc:date>2023-09-03T00:07:09.900781</dc:date>
    <dc:format>image/svg+xml</dc:format>
    <dc:creator>
     <cc:Agent>
      <dc:title>Matplotlib v3.7.1, https://matplotlib.org/</dc:title>
     </cc:Agent>
    </dc:creator>
   </cc:Work>
  </rdf:RDF>
 </metadata>
 <defs>
  <style type="text/css">*{stroke-linejoin: round; stroke-linecap: butt}</style>
 </defs>
 <g id="figure_1">
  <g id="patch_1">
   <path d="M 0 180 
L 576 180 
L 576 0 
L 0 0 
z
" style="fill: #ffffff"/>
  </g>
  <g id="axes_1">
   <g id="patch_2">
    <path d="M 72 160.2 
L 203.294118 160.2 
L 203.294118 21.6 
L 72 21.6 
z
" style="fill: #ffffff"/>
   </g>
   <g id="matplotlib.axis_1"/>
   <g id="matplotlib.axis_2"/>
   <g id="line2d_1">
    <path d="M 75.938824 27.228179 
L 78.537911 27.095552 
L 81.136999 27.047419 
L 83.736086 27.021511 
L 86.335174 27.004348 
L 88.934262 26.991731 
L 91.533349 26.981962 
L 94.132437 26.974186 
L 96.731525 26.967893 
L 99.330612 26.96274 
L 101.9297 26.958482 
L 104.528788 26.954935 
L 107.127875 26.95196 
L 109.726963 26.94945 
L 112.32605 26.947319 
L 114.925138 26.945503 
L 117.524226 26.943946 
L 120.123313 26.942607 
L 122.722401 26.941451 
L 125.321489 26.940449 
L 127.920576 26.939577 
L 130.519664 26.938816 
L 133.118752 26.938149 
L 135.717839 26.937563 
L 138.316927 26.937046 
L 140.916014 26.936588 
L 143.515102 26.935819 
L 148.713277 26.935495 
L 151.312365 26.935205 
L 153.911453 26.934945 
L 156.51054 26.934712 
L 159.109628 26.934501 
L 161.708715 26.934312 
L 164.307803 26.934141 
L 166.906891 26.933986 
L 169.505978 26.933847 
L 172.105066 26.933722 
L 174.704154 26.933608 
L 177.303241 26.933507 
L 179.902329 26.933416 
L 182.501417 26.933334 
L 185.100504 26.933262 
L 187.699592 26.933198 
L 190.298679 26.933142 
L 192.897767 26.933094 
L 195.496855 26.933053 
L 198.095942 26.933019 
L 200.69503 26.932991 
L 203.294118 26.93297 
" clip-path="url(#pff7d1c01ce)" style="fill: none; stroke-dasharray: 19.2,4.8,3,4.8; stroke-dashoffset: 0; stroke: #0000ff; stroke-width: 3"/>
   </g>
   <g id="line2d_2">
    <path d="M 75.938824 59.603211 
L 78.537911 53.202078 
L 81.136999 53.213593 
L 83.736086 56.237805 
L 86.335174 59.980659 
L 88.934262 63.296185 
L 91.533349 65.75965 
L 94.132437 67.303158 
L 96.731525 68.007993 
L 99.330612 68.005388 
L 101.9297 67.433928 
L 104.528788 66.422956 
L 107.127875 65.087064 
L 109.726963 63.525012 
L 112.32605 61.82022 
L 114.925138 60.041652 
L 117.524226 58.244774 
L 120.123313 56.472593 
L 122.722401 54.75689 
L 125.321489 53.119678 
L 127.920576 51.574819 
L 130.519664 50.129672 
L 133.118752 48.786658 
L 135.717839 47.544634 
L 138.316927 46.400035 
L 140.916014 45.347769 
L 143.515102 43.496096 
L 148.713277 42.684025 
L 151.312365 41.939508 
L 153.911453 41.256679 
L 156.51054 40.630053 
L 159.109628 40.054559 
L 161.708715 39.525544 
L 164.307803 39.03876 
L 166.906891 38.59035 
L 169.505978 38.176815 
L 172.105066 37.79499 
L 174.704154 37.442018 
L 177.303241 37.115314 
L 179.902329 36.812548 
L 182.501417 36.531617 
L 185.100504 36.27062 
L 187.699592 36.027842 
L 190.298679 35.801733 
L 192.897767 35.590892 
L 195.496855 35.394049 
L 198.095942 35.210057 
L 200.69503 35.037876 
L 203.294118 34.876562 
" clip-path="url(#pff7d1c01ce)" style="fill: none; stroke: #ff0000; stroke-width: 3; stroke-linecap: square"/>
   </g>
   <g id="line2d_3">
    <path d="M 75.938824 139.673872 
L 78.537911 127.508857 
L 81.136999 125.686927 
L 83.736086 126.812751 
L 86.335174 124.410523 
L 88.934262 116.917718 
L 91.533349 105.808371 
L 94.132437 93.529796 
L 96.731525 82.082818 
L 99.330612 72.480111 
L 101.9297 64.912483 
L 104.528788 59.138517 
L 107.127875 54.783992 
L 109.726963 51.492902 
L 112.32605 48.978417 
L 114.925138 47.026505 
L 117.524226 45.483265 
L 120.123313 44.239783 
L 122.722401 43.219263 
L 125.321489 42.367336 
L 127.920576 41.645159 
L 130.519664 41.024639 
L 133.118752 40.485157 
L 135.717839 40.011348 
L 138.316927 39.59157 
L 140.916014 39.216863 
L 143.515102 38.576101 
L 148.713277 38.300023 
L 151.312365 38.048351 
L 153.911453 37.818085 
L 156.51054 37.606722 
L 159.109628 37.412155 
L 161.708715 37.232592 
L 164.307803 37.066495 
L 166.906891 36.912536 
L 169.505978 36.769557 
L 172.105066 36.636544 
L 174.704154 36.512605 
L 177.303241 36.396945 
L 179.902329 36.288862 
L 182.501417 36.187724 
L 185.100504 36.092966 
L 187.699592 36.004079 
L 190.298679 35.920603 
L 192.897767 35.842124 
L 195.496855 35.768264 
L 198.095942 35.698679 
L 200.69503 35.633058 
L 203.294118 35.571114 
" clip-path="url(#pff7d1c01ce)" style="fill: none; stroke-dasharray: 11.1,4.8; stroke-dashoffset: 0; stroke: #000000; stroke-width: 3"/>
   </g>
   <g id="patch_3">
    <path d="M 72 160.2 
L 72 21.6 
" style="fill: none; stroke: #000000; stroke-width: 0.8; stroke-linejoin: miter; stroke-linecap: square"/>
   </g>
   <g id="patch_4">
    <path d="M 203.294118 160.2 
L 203.294118 21.6 
" style="fill: none; stroke: #000000; stroke-width: 0.8; stroke-linejoin: miter; stroke-linecap: square"/>
   </g>
   <g id="patch_5">
    <path d="M 72 160.2 
L 203.294118 160.2 
" style="fill: none; stroke: #000000; stroke-width: 0.8; stroke-linejoin: miter; stroke-linecap: square"/>
   </g>
   <g id="patch_6">
    <path d="M 72 21.6 
L 203.294118 21.6 
" style="fill: none; stroke: #000000; stroke-width: 0.8; stroke-linejoin: miter; stroke-linecap: square"/>
   </g>
   <g id="legend_1">
    <g id="patch_7">
     <path d="M 101.88943 152.7 
L 192.794118 152.7 
Q 195.794118 152.7 195.794118 149.7 
L 195.794118 85.148438 
Q 195.794118 82.148438 192.794118 82.148438 
L 101.88943 82.148438 
Q 98.88943 82.148438 98.88943 85.148438 
L 98.88943 149.7 
Q 98.88943 152.7 101.88943 152.7 
z
" style="fill: #ffffff; opacity: 0.8; stroke: #cccccc; stroke-linejoin: miter"/>
    </g>
    <g id="line2d_4">
     <path d="M 104.88943 94.296094 
L 119.88943 94.296094 
L 134.88943 94.296094 
" style="fill: none; stroke-dasharray: 19.2,4.8,3,4.8; stroke-dashoffset: 0; stroke: #0000ff; stroke-width: 3"/>
    </g>
    <g id="text_1">
     <!--           -->
     <g transform="translate(146.88943 99.546094) scale(0.15 -0.15)">
      <defs>
       <path id="DejaVuSans-20" transform="scale(0.015625)"/>
      </defs>
      <use xlink:href="#DejaVuSans-20"/>
      <use xlink:href="#DejaVuSans-20" x="31.787109"/>
      <use xlink:href="#DejaVuSans-20" x="63.574219"/>
      <use xlink:href="#DejaVuSans-20" x="95.361328"/>
      <use xlink:href="#DejaVuSans-20" x="127.148438"/>
      <use xlink:href="#DejaVuSans-20" x="158.935547"/>
      <use xlink:href="#DejaVuSans-20" x="190.722656"/>
      <use xlink:href="#DejaVuSans-20" x="222.509766"/>
      <use xlink:href="#DejaVuSans-20" x="254.296875"/>
     </g>
    </g>
    <g id="line2d_5">
     <path d="M 104.88943 116.313281 
L 119.88943 116.313281 
L 134.88943 116.313281 
" style="fill: none; stroke: #ff0000; stroke-width: 3; stroke-linecap: square"/>
    </g>
    <g id="text_2">
     <!--           -->
     <g transform="translate(146.88943 121.563281) scale(0.15 -0.15)">
      <use xlink:href="#DejaVuSans-20"/>
      <use xlink:href="#DejaVuSans-20" x="31.787109"/>
      <use xlink:href="#DejaVuSans-20" x="63.574219"/>
      <use xlink:href="#DejaVuSans-20" x="95.361328"/>
      <use xlink:href="#DejaVuSans-20" x="127.148438"/>
      <use xlink:href="#DejaVuSans-20" x="158.935547"/>
      <use xlink:href="#DejaVuSans-20" x="190.722656"/>
      <use xlink:href="#DejaVuSans-20" x="222.509766"/>
      <use xlink:href="#DejaVuSans-20" x="254.296875"/>
     </g>
    </g>
    <g id="line2d_6">
     <path d="M 104.88943 138.330469 
L 119.88943 138.330469 
L 134.88943 138.330469 
" style="fill: none; stroke-dasharray: 11.1,4.8; stroke-dashoffset: 0; stroke: #000000; stroke-width: 3"/>
    </g>
    <g id="text_3">
     <!--           -->
     <g transform="translate(146.88943 143.580469) scale(0.15 -0.15)">
      <use xlink:href="#DejaVuSans-20"/>
      <use xlink:href="#DejaVuSans-20" x="31.787109"/>
      <use xlink:href="#DejaVuSans-20" x="63.574219"/>
      <use xlink:href="#DejaVuSans-20" x="95.361328"/>
      <use xlink:href="#DejaVuSans-20" x="127.148438"/>
      <use xlink:href="#DejaVuSans-20" x="158.935547"/>
      <use xlink:href="#DejaVuSans-20" x="190.722656"/>
      <use xlink:href="#DejaVuSans-20" x="222.509766"/>
      <use xlink:href="#DejaVuSans-20" x="254.296875"/>
     </g>
    </g>
   </g>
  </g>
  <g id="axes_2">
   <g id="patch_8">
    <path d="M 229.552941 160.2 
L 360.847059 160.2 
L 360.847059 21.6 
L 229.552941 21.6 
z
" style="fill: #ffffff"/>
   </g>
   <g id="matplotlib.axis_3"/>
   <g id="matplotlib.axis_4"/>
   <g id="line2d_7">
    <path d="M 233.491765 21.787045 
L 236.090852 33.54413 
L 238.68994 43.697976 
L 241.289028 52.248583 
L 243.888115 60.264777 
L 246.487203 66.677733 
L 249.086291 73.090688 
L 251.685378 77.900405 
L 254.284466 82.710121 
L 256.883553 86.985425 
L 259.482641 90.726316 
L 262.081729 93.932794 
L 264.680816 97.139271 
L 267.279904 100.345749 
L 269.878992 102.483401 
L 272.478079 105.155466 
L 275.077167 107.293117 
L 277.676255 109.430769 
L 280.275342 111.034008 
L 282.87443 112.637247 
L 285.473517 114.240486 
L 288.072605 115.843725 
L 290.671693 117.446964 
L 293.27078 118.515789 
L 295.869868 119.584615 
L 298.468956 120.653441 
L 301.068043 122.791093 
L 306.266218 123.325506 
L 308.865306 124.394332 
L 311.464394 124.928745 
L 314.063481 125.463158 
L 316.662569 126.531984 
L 319.261657 127.066397 
L 321.860744 127.60081 
L 324.459832 128.135223 
L 327.05892 128.669636 
L 329.658007 129.204049 
L 332.257095 129.204049 
L 334.856182 129.738462 
L 337.45527 130.272874 
L 340.054358 130.807287 
L 342.653445 130.807287 
L 345.252533 131.3417 
L 347.851621 131.876113 
L 350.450708 131.876113 
L 353.049796 132.410526 
L 355.648884 132.410526 
L 358.247971 132.944939 
L 360.847059 132.944939 
" clip-path="url(#p08aead12d5)" style="fill: none; stroke-dasharray: 19.2,4.8,3,4.8; stroke-dashoffset: 0; stroke: #0000ff; stroke-width: 3"/>
   </g>
   <g id="line2d_8">
    <path d="M 233.491765 23.924696 
L 236.090852 35.147368 
L 238.68994 45.835628 
L 241.289028 54.920648 
L 243.888115 63.471255 
L 246.487203 70.953036 
L 249.086291 77.365992 
L 251.685378 83.778947 
L 254.284466 89.123077 
L 256.883553 93.932794 
L 259.482641 98.208097 
L 262.081729 102.483401 
L 264.680816 106.224291 
L 267.279904 109.430769 
L 269.878992 112.637247 
L 272.478079 115.309312 
L 275.077167 117.446964 
L 277.676255 120.119028 
L 280.275342 122.25668 
L 282.87443 123.859919 
L 285.473517 125.463158 
L 288.072605 127.066397 
L 290.671693 128.669636 
L 293.27078 129.738462 
L 295.869868 130.807287 
L 298.468956 131.876113 
L 301.068043 134.013765 
L 306.266218 134.548178 
L 308.865306 135.617004 
L 311.464394 136.151417 
L 314.063481 136.68583 
L 316.662569 137.754656 
L 319.261657 138.289069 
L 321.860744 138.823482 
L 324.459832 139.357895 
L 327.05892 139.357895 
L 329.658007 139.892308 
L 332.257095 140.426721 
L 334.856182 140.961134 
L 337.45527 140.961134 
L 340.054358 141.495547 
L 342.653445 142.02996 
L 345.252533 142.02996 
L 347.851621 142.564372 
L 350.450708 142.564372 
L 353.049796 142.564372 
L 355.648884 143.098785 
L 358.247971 143.098785 
L 360.847059 143.633198 
" clip-path="url(#p08aead12d5)" style="fill: none; stroke: #ff0000; stroke-width: 3; stroke-linecap: square"/>
   </g>
   <g id="line2d_9">
    <path d="M 233.491765 26.596761 
L 236.090852 39.422672 
L 238.68994 51.71417 
L 241.289028 62.936842 
L 243.888115 73.625101 
L 246.487203 82.710121 
L 249.086291 90.191903 
L 251.685378 97.139271 
L 254.284466 102.483401 
L 256.883553 107.293117 
L 259.482641 111.034008 
L 262.081729 114.774899 
L 264.680816 117.446964 
L 267.279904 120.119028 
L 269.878992 122.25668 
L 272.478079 124.394332 
L 275.077167 125.997571 
L 277.676255 127.60081 
L 280.275342 129.204049 
L 282.87443 130.272874 
L 285.473517 131.876113 
L 288.072605 132.944939 
L 290.671693 133.479352 
L 293.27078 134.548178 
L 295.869868 135.617004 
L 298.468956 136.151417 
L 301.068043 137.754656 
L 306.266218 138.289069 
L 308.865306 138.823482 
L 311.464394 139.357895 
L 314.063481 139.892308 
L 316.662569 140.426721 
L 319.261657 140.426721 
L 321.860744 140.961134 
L 324.459832 141.495547 
L 327.05892 141.495547 
L 329.658007 142.02996 
L 332.257095 142.564372 
L 334.856182 142.564372 
L 337.45527 143.098785 
L 340.054358 143.098785 
L 342.653445 143.633198 
L 345.252533 143.633198 
L 347.851621 143.633198 
L 350.450708 144.167611 
L 353.049796 144.167611 
L 355.648884 144.167611 
L 358.247971 144.702024 
L 360.847059 144.702024 
" clip-path="url(#p08aead12d5)" style="fill: none; stroke-dasharray: 11.1,4.8; stroke-dashoffset: 0; stroke: #000000; stroke-width: 3"/>
   </g>
   <g id="patch_9">
    <path d="M 229.552941 160.2 
L 229.552941 21.6 
" style="fill: none; stroke: #000000; stroke-width: 0.8; stroke-linejoin: miter; stroke-linecap: square"/>
   </g>
   <g id="patch_10">
    <path d="M 360.847059 160.2 
L 360.847059 21.6 
" style="fill: none; stroke: #000000; stroke-width: 0.8; stroke-linejoin: miter; stroke-linecap: square"/>
   </g>
   <g id="patch_11">
    <path d="M 229.552941 160.2 
L 360.847059 160.2 
" style="fill: none; stroke: #000000; stroke-width: 0.8; stroke-linejoin: miter; stroke-linecap: square"/>
   </g>
   <g id="patch_12">
    <path d="M 229.552941 21.6 
L 360.847059 21.6 
" style="fill: none; stroke: #000000; stroke-width: 0.8; stroke-linejoin: miter; stroke-linecap: square"/>
   </g>
  </g>
  <g id="axes_3">
   <g id="patch_13">
    <path d="M 387.105882 160.2 
L 518.4 160.2 
L 518.4 21.6 
L 387.105882 21.6 
z
" style="fill: #ffffff"/>
   </g>
   <g id="matplotlib.axis_5"/>
   <g id="matplotlib.axis_6"/>
   <g id="line2d_10">
    <path d="M 391.044706 25.169044 
L 393.643794 25.085604 
L 396.242881 25.054643 
L 398.841969 25.038041 
L 401.441056 25.026976 
L 404.040144 25.019181 
L 406.639232 25.012971 
L 409.238319 25.008098 
L 411.837407 25.004029 
L 414.436495 25.00083 
L 417.035582 24.997435 
L 419.63467 24.99538 
L 422.233758 24.992475 
L 424.832845 24.988888 
L 427.431933 24.988905 
L 430.03102 24.986256 
L 432.630108 24.984413 
L 435.229196 24.983867 
L 437.828283 24.982793 
L 440.427371 24.982611 
L 443.026459 24.98117 
L 445.625546 24.980304 
L 448.224634 24.979923 
L 450.823721 24.980425 
L 453.422809 24.978683 
L 456.021897 24.977464 
L 458.620984 24.979199 
L 463.81916 24.979054 
L 466.418247 24.978195 
L 469.017335 24.977998 
L 471.616423 24.978344 
L 474.21551 24.978195 
L 476.814598 24.978613 
L 479.413685 24.978842 
L 482.012773 24.977512 
L 484.611861 24.977577 
L 487.210948 24.978231 
L 489.810036 24.979172 
L 492.409124 24.978137 
L 495.008211 24.977894 
L 497.607299 24.977961 
L 500.206387 24.979284 
L 502.805474 24.97823 
L 505.404562 24.979197 
L 508.003649 24.97862 
L 510.602737 24.977342 
L 513.201825 24.977407 
L 515.800912 24.977882 
L 518.4 24.978322 
" clip-path="url(#p9aa1fb9306)" style="fill: none; stroke-dasharray: 19.2,4.8,3,4.8; stroke-dashoffset: 0; stroke: #0000ff; stroke-width: 3"/>
   </g>
   <g id="line2d_11">
    <path d="M 391.044706 47.458677 
L 393.643794 42.752124 
L 396.242881 42.772255 
L 398.841969 44.99031 
L 401.441056 47.792227 
L 404.040144 50.3294 
L 406.639232 52.257334 
L 409.238319 53.486085 
L 411.837407 54.062887 
L 414.436495 54.085971 
L 417.035582 53.662178 
L 419.63467 52.889628 
L 422.233758 51.871771 
L 424.832845 50.687603 
L 427.431933 49.40442 
L 430.03102 48.073731 
L 432.630108 46.743968 
L 435.229196 45.440384 
L 437.828283 44.189794 
L 440.427371 43.002522 
L 443.026459 41.892556 
L 445.625546 40.860626 
L 448.224634 39.908051 
L 450.823721 39.029639 
L 453.422809 38.226578 
L 456.021897 37.489278 
L 458.620984 36.198502 
L 463.81916 35.638228 
L 466.418247 35.121286 
L 469.017335 34.651167 
L 471.616423 34.220782 
L 474.21551 33.82553 
L 476.814598 33.462147 
L 479.413685 33.129191 
L 482.012773 32.823199 
L 484.611861 32.540965 
L 487.210948 32.279399 
L 489.810036 32.037206 
L 492.409124 31.816464 
L 495.008211 31.610566 
L 497.607299 31.418768 
L 500.206387 31.244679 
L 502.805474 31.076921 
L 505.404562 30.925503 
L 508.003649 30.780402 
L 510.602737 30.649986 
L 513.201825 30.52244 
L 515.800912 30.407112 
L 518.4 30.297267 
" clip-path="url(#p9aa1fb9306)" style="fill: none; stroke: #ff0000; stroke-width: 3; stroke-linecap: square"/>
   </g>
   <g id="line2d_12">
    <path d="M 391.044706 130.706623 
L 393.643794 112.672145 
L 396.242881 109.880611 
L 398.841969 111.049297 
L 401.441056 108.267683 
L 404.040144 99.978647 
L 406.639232 88.488031 
L 409.238319 76.724126 
L 411.837407 66.503867 
L 414.436495 58.415502 
L 417.035582 52.328158 
L 419.63467 47.827939 
L 422.233758 44.525013 
L 424.832845 42.070007 
L 427.431933 40.227438 
L 430.03102 38.809624 
L 432.630108 37.705461 
L 435.229196 36.819011 
L 437.828283 36.093695 
L 440.427371 35.501963 
L 443.026459 34.995156 
L 445.625546 34.563385 
L 448.224634 34.191965 
L 450.823721 33.857811 
L 453.422809 33.569622 
L 456.021897 33.30864 
L 458.620984 32.873716 
L 463.81916 32.681951 
L 466.418247 32.509529 
L 469.017335 32.352955 
L 471.616423 32.211474 
L 474.21551 32.082637 
L 476.814598 31.956468 
L 479.413685 31.83996 
L 482.012773 31.737407 
L 484.611861 31.643795 
L 487.210948 31.547971 
L 489.810036 31.470499 
L 492.409124 31.385149 
L 495.008211 31.317746 
L 497.607299 31.243458 
L 500.206387 31.187558 
L 502.805474 31.119358 
L 505.404562 31.068115 
L 508.003649 31.011595 
L 510.602737 30.959116 
L 513.201825 30.91999 
L 515.800912 30.86911 
L 518.4 30.825352 
" clip-path="url(#p9aa1fb9306)" style="fill: none; stroke-dasharray: 11.1,4.8; stroke-dashoffset: 0; stroke: #000000; stroke-width: 3"/>
   </g>
   <g id="patch_14">
    <path d="M 387.105882 160.2 
L 387.105882 21.6 
" style="fill: none; stroke: #000000; stroke-width: 0.8; stroke-linejoin: miter; stroke-linecap: square"/>
   </g>
   <g id="patch_15">
    <path d="M 518.4 160.2 
L 518.4 21.6 
" style="fill: none; stroke: #000000; stroke-width: 0.8; stroke-linejoin: miter; stroke-linecap: square"/>
   </g>
   <g id="patch_16">
    <path d="M 387.105882 160.2 
L 518.4 160.2 
" style="fill: none; stroke: #000000; stroke-width: 0.8; stroke-linejoin: miter; stroke-linecap: square"/>
   </g>
   <g id="patch_17">
    <path d="M 387.105882 21.6 
L 518.4 21.6 
" style="fill: none; stroke: #000000; stroke-width: 0.8; stroke-linejoin: miter; stroke-linecap: square"/>
   </g>
  </g>
 </g>
 <defs>
  <clipPath id="pff7d1c01ce">
   <rect x="72" y="21.6" width="131.294118" height="138.6"/>
  </clipPath>
  <clipPath id="p08aead12d5">
   <rect x="229.552941" y="21.6" width="131.294118" height="138.6"/>
  </clipPath>
  <clipPath id="p9aa1fb9306">
   <rect x="387.105882" y="21.6" width="131.294118" height="138.6"/>
  </clipPath>
 </defs>
</svg>
