<?xml version="1.0" encoding="utf-8" standalone="no"?>
<!DOCTYPE svg PUBLIC "-//W3C//DTD SVG 1.1//EN"
  "http://www.w3.org/Graphics/SVG/1.1/DTD/svg11.dtd">
<svg xmlns:xlink="http://www.w3.org/1999/xlink" width="504pt" height="360pt" viewBox="0 0 504 360" xmlns="http://www.w3.org/2000/svg" version="1.1">
 <metadata>
  <rdf:RDF xmlns:dc="http://purl.org/dc/elements/1.1/" xmlns:cc="http://creativecommons.org/ns#" xmlns:rdf="http://www.w3.org/1999/02/22-rdf-syntax-ns#">
   <cc:Work>
    <dc:type rdf:resource="http://purl.org/dc/dcmitype/StillImage"/>
    <dc:date>2023-09-06T13:17:30.094435</dc:date>
    <dc:format>image/svg+xml</dc:format>
    <dc:creator>
     <cc:Agent>
      <dc:title>Matplotlib v3.7.1, https://matplotlib.org/</dc:title>
     </cc:Agent>
    </dc:creator>
   </cc:Work>
  </rdf:RDF>
 </metadata>
 <defs>
  <style type="text/css">*{stroke-linejoin: round; stroke-linecap: butt}</style>
 </defs>
 <g id="figure_1">
  <g id="patch_1">
   <path d="M 0 360 
L 504 360 
L 504 0 
L 0 0 
z
" style="fill: #ffffff"/>
  </g>
  <g id="axes_1">
   <g id="line2d_1">
    <path d="M -1 237.103987 
L 63 237.169664 
L 69.51 237.308412 
L 76.02 237.683461 
L 79.275 238.04579 
L 82.53 238.598873 
L 85.785 239.420954 
L 89.04 240.610097 
L 92.295 242.282922 
L 95.55 244.569532 
L 98.805 247.603335 
L 102.06 251.504814 
L 105.315 256.359043 
L 108.57 262.187963 
L 111.825 268.919991 
L 115.08 276.361318 
L 121.59 291.871887 
L 124.845 298.826569 
L 128.1 304.309554 
L 131.355 307.547633 
L 134.61 307.8 
L 137.865 304.443151 
L 141.12 297.051968 
L 144.375 285.464399 
L 147.63 269.819434 
L 150.885 250.562298 
L 154.14 228.415838 
L 157.395 204.321913 
L 163.905 154.655689 
L 167.16 131.282618 
L 170.415 110.181406 
L 173.67 92.09203 
L 176.925 77.513448 
L 180.18 66.690384 
L 183.435 59.626194 
L 186.69 56.116995 
L 189.945 55.8 
L 193.2 58.208181 
L 196.455 62.823909 
L 199.71 69.125808 
L 202.965 76.625194 
L 206.22 84.890678 
L 219.24 119.481316 
L 222.495 127.566884 
L 225.75 135.237252 
L 229.005 142.461781 
L 232.26 149.231671 
L 235.515 155.552884 
L 238.77 161.44074 
L 242.025 166.916008 
L 245.28 172.002199 
L 248.535 176.723785 
L 251.79 181.105084 
L 255.045 185.169604 
L 258.3 188.939699 
L 261.555 192.436405 
L 264.81 195.679397 
L 268.065 198.687007 
L 271.32 201.476284 
L 274.575 204.06306 
L 277.83 206.462027 
L 281.085 208.686818 
L 284.34 210.750077 
L 287.595 212.663531 
L 290.85 214.438057 
L 297.36 217.60994 
L 303.87 220.337948 
L 310.38 222.684197 
L 316.89 224.70211 
L 323.4 226.437636 
L 329.91 227.930291 
L 336.42 229.214063 
L 342.93 230.318183 
L 352.695 231.691536 
L 362.46 232.786941 
L 372.225 233.660651 
L 385.245 234.556944 
L 398.265 235.219934 
L 414.54 235.811535 
L 434.07 236.281745 
L 460.11 236.65409 
L 495.915 236.907642 
L 505 236.944818 
L 505 236.944818 
" clip-path="url(#p98ce0f4bb2)" style="fill: none; stroke: #0000cd; stroke-linecap: square"/>
   </g>
  </g>
 </g>
 <defs>
  <clipPath id="p98ce0f4bb2">
   <rect x="63" y="43.2" width="390.6" height="277.2"/>
  </clipPath>
 </defs>
</svg>
